<svg width="46" height="6" viewBox="0 0 46 6" fill="none" xmlns="http://www.w3.org/2000/svg">
<path d="M1 4.99237L1.11028 4.98192L1.22055 4.96706L1.33083 4.94784L1.4411 4.92429L1.55138 4.89647L1.66165 4.86444L1.77193 4.82827L1.88221 4.78804L1.99248 4.74384L2.10276 4.69577L2.21303 4.64393L2.32331 4.58845L2.43358 4.52943L2.54386 4.46702L2.65414 4.40136L2.76441 4.33258L2.87469 4.26084L2.98496 4.18631L3.09524 4.10914L3.20551 4.02951L3.31579 3.94759L3.42607 3.86357L3.53634 3.77763L3.64662 3.68997L3.75689 3.60077L3.86717 3.51024L3.97744 3.41857L4.08772 3.32598L4.19799 3.23266L4.30827 3.13883L4.41855 3.04469L4.52882 2.95045L4.6391 2.85632L4.74937 2.7625L4.85965 2.66922L4.96992 2.57667L5.0802 2.48506L5.19048 2.39459L5.30075 2.30547L5.41103 2.21789L5.5213 2.13204L5.63158 2.04812L5.74185 1.96632L5.85213 1.88681L5.96241 1.80977L6.07268 1.73538L6.18296 1.66379L6.29323 1.59517L6.40351 1.52967L6.51378 1.46743L6.62406 1.4086L6.73434 1.3533L6.84461 1.30166L6.95489 1.25378L7.06516 1.20978L7.17544 1.16976L7.28571 1.1338L7.39599 1.10199L7.50627 1.07439L7.61654 1.05106L7.72682 1.03206L7.83709 1.01743L7.94737 1.00721L8.05764 1.0014L8.16792 1.00004L8.2782 1.00311L8.38847 1.01062L8.49875 1.02255L8.60902 1.03886L8.7193 1.05953L8.82957 1.08451L8.93985 1.11374L9.05013 1.14716L9.1604 1.18469L9.27068 1.22626L9.38095 1.27176L9.49123 1.3211L9.6015 1.37416L9.71178 1.43084L9.82205 1.491L9.93233 1.55451L10.0426 1.62123L10.1529 1.69101L10.2632 1.7637L10.3734 1.83913L10.4837 1.91714L10.594 1.99755L10.7043 2.08019L10.8145 2.16487L10.9248 2.25141L11.0351 2.33961L11.1454 2.42927L11.2556 2.5202L11.3659 2.6122L11.4762 2.70506L11.5865 2.79857L11.6967 2.89253L11.807 2.98673L11.9173 3.08095L12.0276 3.175L12.1378 3.26866L12.2481 3.36172L12.3584 3.45398L12.4687 3.54524L12.5789 3.63528L12.6892 3.72391L12.7995 3.81093L12.9098 3.89615L13.02 3.97939L13.1303 4.06045L13.2406 4.13915L13.3509 4.21533L13.4612 4.2888L13.5714 4.35942L13.6817 4.42702L13.792 4.49144L13.9023 4.55256L14.0125 4.61023L14.1228 4.66433L14.2331 4.71473L14.3434 4.76132L14.4536 4.804L14.5639 4.84268L14.6742 4.87727L14.7845 4.90768L14.8947 4.93387L15.005 4.95575L15.1153 4.9733L15.2256 4.98647L15.3358 4.99522L15.4461 4.99954L15.5564 4.99943L15.6667 4.99488L15.7769 4.98589L15.8872 4.9725L15.9975 4.95473L16.1078 4.93262L16.218 4.90621L16.3283 4.87558L16.4386 4.84078L16.5489 4.8019L16.6591 4.75901L16.7694 4.71222L16.8797 4.66162L16.99 4.60734L17.1003 4.54949L17.2105 4.4882L17.3208 4.4236L17.4311 4.35584L17.5414 4.28508L17.6516 4.21146L17.7619 4.13515L17.8722 4.05631L17.9825 3.97514L18.0927 3.8918L18.203 3.80648L18.3133 3.71937L18.4236 3.63066L18.5338 3.54055L18.6441 3.44924L18.7544 3.35693L18.8647 3.26384L18.9749 3.17015L19.0852 3.07609L19.1955 2.98186L19.3058 2.88767L19.416 2.79372L19.5263 2.70024L19.6366 2.60742L19.7469 2.51548L19.8571 2.42461L19.9674 2.33501L20.0777 2.2469L20.188 2.16045L20.2982 2.07587L20.4085 1.99334L20.5188 1.91305L20.6291 1.83517L20.7393 1.75987L20.8496 1.68733L20.9599 1.61771L21.0702 1.55115L21.1805 1.48781L21.2907 1.42783L21.401 1.37133L21.5113 1.31846L21.6216 1.26931L21.7318 1.22401L21.8421 1.18266L21.9524 1.14533L22.0627 1.11213L22.1729 1.08312L22.2832 1.05836L22.3935 1.03791L22.5038 1.02182L22.614 1.01013L22.7243 1.00285L22.8346 1L22.9449 1.00159L23.0551 1.00763L23.1654 1.01808L23.2757 1.03294L23.386 1.05216L23.4962 1.07571L23.6065 1.10353L23.7168 1.13556L23.8271 1.17173L23.9373 1.21196L24.0476 1.25616L24.1579 1.30423L24.2682 1.35607L24.3784 1.41155L24.4887 1.47057L24.599 1.53298L24.7093 1.59864L24.8195 1.66742L24.9298 1.73916L25.0401 1.81369L25.1504 1.89086L25.2607 1.97049L25.3709 2.05241L25.4812 2.13643L25.5915 2.22237L25.7018 2.31003L25.812 2.39923L25.9223 2.48976L26.0326 2.58143L26.1429 2.67402L26.2531 2.76734L26.3634 2.86117L26.4737 2.95531L26.584 3.04955L26.6942 3.14369L26.8045 3.2375L26.9148 3.33078L27.0251 3.42333L27.1353 3.51494L27.2456 3.60541L27.3559 3.69453L27.4662 3.78211L27.5764 3.86796L27.6867 3.95188L27.797 4.03368L27.9073 4.11319L28.0175 4.19023L28.1278 4.26462L28.2381 4.33621L28.3484 4.40483L28.4586 4.47033L28.5689 4.53257L28.6792 4.5914L28.7895 4.6467L28.8997 4.69834L29.01 4.74622L29.1203 4.79022L29.2306 4.83024L29.3409 4.8662L29.4511 4.89801L29.5614 4.92561L29.6717 4.94894L29.782 4.96794L29.8922 4.98257L30.0025 4.99279L30.1128 4.9986L30.2231 4.99996L30.3333 4.99689L30.4436 4.98938L30.5539 4.97745L30.6642 4.96114L30.7744 4.94047L30.8847 4.91549L30.995 4.88626L31.1053 4.85284L31.2155 4.81531L31.3258 4.77374L31.4361 4.72824L31.5464 4.6789L31.6566 4.62584L31.7669 4.56916L31.8772 4.509L31.9875 4.44549L32.0977 4.37877L32.208 4.30899L32.3183 4.2363L32.4286 4.16087L32.5388 4.08286L32.6491 4.00245L32.7594 3.91981L32.8697 3.83513L32.9799 3.74859L33.0902 3.66039L33.2005 3.57073L33.3108 3.4798L33.4211 3.3878L33.5313 3.29494L33.6416 3.20143L33.7519 3.10747L33.8622 3.01327L33.9724 2.91905L34.0827 2.825L34.193 2.73134L34.3033 2.63828L34.4135 2.54602L34.5238 2.45476L34.6341 2.36472L34.7444 2.27609L34.8546 2.18907L34.9649 2.10385L35.0752 2.02061L35.1855 1.93955L35.2957 1.86085L35.406 1.78467L35.5163 1.7112L35.6266 1.64058L35.7368 1.57298L35.8471 1.50856L35.9574 1.44744L36.0677 1.38977L36.1779 1.33567L36.2882 1.28527L36.3985 1.23868L36.5088 1.196L36.619 1.15732L36.7293 1.12274L36.8396 1.09232L36.9499 1.06613L37.0601 1.04425L37.1704 1.0267L37.2807 1.01353L37.391 1.00478L37.5013 1.00046L37.6115 1.00057L37.7218 1.00512L37.8321 1.01411L37.9424 1.0275L38.0526 1.04527L38.1629 1.06738L38.2732 1.09379L38.3835 1.12442L38.4937 1.15922L38.604 1.1981L38.7143 1.24099L38.8246 1.28778L38.9348 1.33838L39.0451 1.39266L39.1554 1.45051L39.2657 1.5118L39.3759 1.5764L39.4862 1.64416L39.5965 1.71492L39.7068 1.78854L39.817 1.86486L39.9273 1.94369L40.0376 2.02486L40.1479 2.1082L40.2581 2.19352L40.3684 2.28063L40.4787 2.36934L40.589 2.45945L40.6992 2.55076L40.8095 2.64307L40.9198 2.73616L41.0301 2.82985L41.1403 2.92391L41.2506 3.01814L41.3609 3.11233L41.4712 3.20628L41.5815 3.29976L41.6917 3.39258L41.802 3.48452L41.9123 3.57539L42.0226 3.66499L42.1328 3.7531L42.2431 3.83955L42.3534 3.92413L42.4637 4.00666L42.5739 4.08695L42.6842 4.16483L42.7945 4.24013L42.9048 4.31267L43.015 4.38229L43.1253 4.44885L43.2356 4.51219L43.3459 4.57217L43.4561 4.62867L43.5664 4.68154L43.6767 4.73069L43.787 4.77599L43.8972 4.81734L44.0075 4.85467L44.1178 4.88787L44.2281 4.91688L44.3383 4.94164L44.4486 4.96209L44.5589 4.97818L44.6692 4.98987L44.7794 4.99715L44.8897 5L45 4.99841" stroke="#D24C0F" stroke-width="2" stroke-miterlimit="10" stroke-linecap="round" stroke-linejoin="round"/>
</svg>
