<svg width="110" height="14" viewBox="0 0 110 14" fill="none" xmlns="http://www.w3.org/2000/svg">
<path d="M2 11.5216L2.265 11.4967L2.53 11.4612L2.795 11.4154L3.06 11.3592L3.325 11.2929L3.59 11.2165L3.855 11.1302L4.12 11.0343L4.385 10.9289L4.65 10.8142L4.915 10.6906L5.18 10.5583L5.445 10.4175L5.71 10.2687L5.975 10.1121L6.24 9.94803L6.505 9.77694L6.77 9.59918L7.035 9.41514L7.3 9.22522L7.565 9.02985L7.83 8.82946L8.095 8.6245L8.36 8.41543L8.625 8.2027L8.89 7.98678L9.155 7.76817L9.42 7.54734L9.685 7.32478L9.95 7.10099L10.215 6.87647L10.48 6.65171L10.745 6.42721L11.01 6.20348L11.275 5.981L11.54 5.76027L11.805 5.54178L12.07 5.32602L12.335 5.11347L12.6 4.90459L12.865 4.69986L13.13 4.49972L13.395 4.30462L13.66 4.115L13.925 3.93127L14.19 3.75384L14.455 3.58311L14.72 3.41945L14.985 3.26324L15.25 3.11481L15.515 2.97449L15.78 2.8426L16.045 2.71943L16.31 2.60526L16.575 2.50032L16.84 2.40487L17.105 2.31912L17.37 2.24324L17.635 2.17741L17.9 2.12178L18.165 2.07647L18.43 2.04158L18.695 2.01719L18.96 2.00335L19.225 2.00009L19.49 2.00742L19.755 2.02533L20.02 2.05377L20.285 2.09268L20.55 2.14198L20.815 2.20155L21.08 2.27127L21.345 2.35097L21.61 2.44049L21.875 2.53961L22.14 2.64813L22.405 2.7658L22.67 2.89236L22.935 3.02753L23.2 3.17101L23.465 3.32248L23.73 3.4816L23.995 3.64802L24.26 3.82138L24.525 4.00128L24.79 4.18733L25.055 4.37911L25.32 4.5762L25.585 4.77816L25.85 4.98455L26.115 5.19489L26.38 5.40874L26.645 5.6256L26.91 5.84501L27.175 6.06647L27.44 6.28949L27.705 6.51358L27.97 6.73824L28.235 6.96297L28.5 7.18727L28.765 7.41064L29.03 7.63259L29.295 7.85262L29.56 8.07025L29.825 8.285L30.09 8.49638L30.355 8.70392L30.62 8.90718L30.885 9.10568L31.15 9.299L31.415 9.48671L31.68 9.66838L31.945 9.84362L32.21 10.012L32.475 10.1733L32.74 10.3269L33.005 10.4727L33.27 10.6102L33.535 10.7392L33.8 10.8594L34.065 10.9706L34.33 11.0723L34.595 11.1646L34.86 11.2471L35.125 11.3196L35.39 11.3821L35.655 11.4343L35.92 11.4761L36.185 11.5075L36.45 11.5284L36.715 11.5387L36.98 11.5384L37.245 11.5276L37.51 11.5061L37.775 11.4742L38.04 11.4318L38.305 11.3791L38.57 11.3161L38.835 11.2431L39.1 11.1601L39.365 11.0673L39.63 10.965L39.895 10.8534L40.16 10.7328L40.425 10.6033L40.69 10.4653L40.955 10.3192L41.22 10.1651L41.485 10.0035L41.75 9.83473L42.015 9.65915L42.28 9.47716L42.545 9.28915L42.81 9.09555L43.075 8.89679L43.34 8.6933L43.605 8.48555L43.87 8.27398L44.135 8.05908L44.4 7.84131L44.665 7.62117L44.93 7.39913L45.195 7.1757L45.46 6.95136L45.725 6.72663L45.99 6.50199L46.255 6.27794L46.52 6.05499L46.785 5.83362L47.05 5.61433L47.315 5.39761L47.58 5.18394L47.845 4.97378L48.11 4.76762L48.375 4.5659L48.64 4.36907L48.905 4.17757L49.17 3.99183L49.435 3.81226L49.7 3.63925L49.965 3.4732L50.23 3.31446L50.495 3.1634L50.76 3.02034L51.025 2.88561L51.29 2.7595L51.555 2.6423L51.82 2.53426L52.085 2.43562L52.35 2.34661L52.615 2.26742L52.88 2.19823L53.145 2.13918L53.41 2.09042L53.675 2.05205L53.94 2.02415L54.205 2.00679L54.47 2L54.735 2.0038L55 2.01819L55.265 2.04312L55.53 2.07856L55.795 2.1244L56.06 2.18056L56.325 2.24691L56.59 2.3233L56.855 2.40957L57.12 2.50552L57.385 2.61093L57.65 2.72558L57.915 2.8492L58.18 2.98154L58.445 3.12228L58.71 3.27112L58.975 3.42773L59.24 3.59176L59.505 3.76285L59.77 3.94061L60.035 4.12465L60.3 4.31457L60.565 4.50994L60.83 4.71033L61.095 4.91529L61.36 5.12436L61.625 5.3371L61.89 5.55301L62.155 5.77162L62.42 5.99245L62.685 6.21501L62.95 6.4388L63.215 6.66332L63.48 6.88808L63.745 7.11258L64.01 7.33631L64.275 7.55879L64.54 7.77952L64.805 7.99801L65.07 8.21377L65.335 8.42632L65.6 8.6352L65.865 8.83993L66.13 9.04007L66.395 9.23517L66.66 9.42479L66.925 9.60852L67.19 9.78595L67.455 9.95668L67.72 10.1203L67.985 10.2766L68.25 10.425L68.515 10.5653L68.78 10.6972L69.045 10.8204L69.31 10.9345L69.575 11.0395L69.84 11.1349L70.105 11.2207L70.37 11.2966L70.635 11.3624L70.9 11.418L71.165 11.4633L71.43 11.4982L71.695 11.5226L71.96 11.5364L72.225 11.5397L72.49 11.5324L72.755 11.5145L73.02 11.486L73.285 11.4471L73.55 11.3978L73.815 11.3382L74.08 11.2685L74.345 11.1888L74.61 11.0993L74.875 11.0002L75.14 10.8917L75.405 10.774L75.67 10.6474L75.935 10.5123L76.2 10.3688L76.465 10.2173L76.73 10.0582L76.995 9.89177L77.26 9.71841L77.525 9.53851L77.79 9.35246L78.055 9.16068L78.32 8.96359L78.585 8.76163L78.85 8.55524L79.115 8.3449L79.38 8.13105L79.645 7.91419L79.91 7.69478L80.175 7.47332L80.44 7.2503L80.705 7.02621L80.97 6.80155L81.235 6.57682L81.5 6.35252L81.765 6.12915L82.03 5.9072L82.295 5.68717L82.56 5.46954L82.825 5.25479L83.09 5.04341L83.355 4.83587L83.62 4.63261L83.885 4.43411L84.15 4.24079L84.415 4.05308L84.68 3.87141L84.945 3.69617L85.21 3.52775L85.475 3.36654L85.74 3.21288L86.005 3.06712L86.27 2.92958L86.535 2.80056L86.8 2.68036L87.065 2.56924L87.33 2.46744L87.595 2.3752L87.86 2.29272L88.125 2.22017L88.39 2.15773L88.655 2.10553L88.92 2.06368L89.185 2.03228L89.45 2.0114L89.715 2.00109L89.98 2.00136L90.245 2.01222L90.51 2.03364L90.775 2.06558L91.04 2.10797L91.305 2.1607L91.57 2.22367L91.835 2.29674L92.1 2.37973L92.365 2.47247L92.63 2.57475L92.895 2.68635L93.16 2.80701L93.425 2.93647L93.69 3.07445L93.955 3.22063L94.22 3.37469L94.485 3.53628L94.75 3.70506L95.015 3.88064L95.28 4.06263L95.545 4.25064L95.81 4.44424L96.075 4.643L96.34 4.84649L96.605 5.05424L96.87 5.26581L97.135 5.48071L97.4 5.69848L97.665 5.91862L97.93 6.14066L98.195 6.36409L98.46 6.58843L98.725 6.81316L98.99 7.0378L99.255 7.26185L99.52 7.4848L99.785 7.70617L100.05 7.92546L100.315 8.14218L100.58 8.35585L100.845 8.56601L101.11 8.77217L101.375 8.97389L101.64 9.17072L101.905 9.36222L102.17 9.54796L102.435 9.72753L102.7 9.90054L102.965 10.0666L103.23 10.2253L103.495 10.3764L103.76 10.5194L104.025 10.6542L104.29 10.7803L104.555 10.8975L104.82 11.0055L105.085 11.1042L105.35 11.1932L105.615 11.2724L105.88 11.3416L106.145 11.4006L106.41 11.4494L106.675 11.4877L106.94 11.5156L107.205 11.533L107.47 11.5398L107.735 11.536" stroke="white" stroke-width="3" stroke-miterlimit="10" stroke-linecap="round" stroke-linejoin="round"/>
</svg>
